<svg version="1.1" id="Layer_1" xmlns="http://www.w3.org/2000/svg" xmlns:xlink="http://www.w3.org/1999/xlink" x="0px" y="0px"
	 width="100%" viewBox="0 0 512 512" enable-background="new 0 0 512 512" xml:space="preserve">
<path fill="#F5F6F6" opacity="1.000000" stroke="none" 
	d="
M1.000001,229.000000 
	C1.000000,153.070786 1.000000,77.141563 1.000000,1.000000 
	C81.354103,1.000000 161.708389,1.000000 242.336792,1.348107 
	C208.249725,5.947371 178.183426,19.975000 151.500153,41.710842 
	C113.371040,72.770309 76.668259,105.427734 41.518131,139.826782 
	C37.639011,143.623001 33.691769,147.349609 29.351820,151.515823 
	C38.901947,161.750595 47.805843,171.427582 56.868053,180.953934 
	C62.266453,186.628845 64.907661,186.473938 70.658707,181.080383 
	C93.869118,159.312790 116.672836,137.083160 140.489914,115.999229 
	C162.040604,96.921623 183.554535,77.434334 207.155869,61.124928 
	C245.545563,34.596203 286.957336,31.995535 329.208008,53.127373 
	C347.127258,62.089764 362.141052,75.055023 377.244385,87.900719 
	C426.900452,130.134201 467.250336,180.451218 504.036652,233.864883 
	C504.822357,235.005737 505.722107,236.068054 507.278839,238.089005 
	C506.290436,224.518127 504.492523,212.632599 498.105408,201.499664 
	C477.690857,165.916534 453.222931,133.413361 425.441162,103.309074 
	C399.835754,75.563011 372.859161,49.369827 340.913116,28.864758 
	C323.360840,17.598553 305.439117,7.006683 284.396637,3.378864 
	C280.898346,2.775748 277.463928,1.802310 274.000000,1.000000 
	C353.643433,1.000000 433.286865,1.000000 512.965149,1.000000 
	C512.965149,171.593658 512.965149,342.187347 512.965149,512.890503 
	C342.456146,512.890503 171.912216,512.890503 1.000000,512.890503 
	C1.000000,434.312836 1.000000,355.625061 1.342326,276.651367 
	C4.302832,284.369293 5.777333,292.994232 9.730242,300.273224 
	C30.772755,339.021515 57.869961,373.367462 87.984596,405.431458 
	C114.655785,433.829163 143.362915,459.645233 176.636398,480.383911 
	C207.873398,499.853333 241.102188,506.484802 277.090546,499.944946 
	C306.959503,494.517059 333.443695,481.497223 356.373627,461.907562 
	C387.276550,435.506409 417.737152,408.574066 447.923889,381.355408 
	C458.391724,371.916809 467.476898,360.944763 477.763306,350.070862 
	C468.927521,340.736725 459.298096,330.385010 449.438904,320.256989 
	C446.437469,317.173737 442.756409,317.408051 439.622833,320.396454 
	C429.020172,330.507874 418.491272,340.696594 407.622559,350.987366 
	C403.089447,355.136963 398.867950,359.155029 394.508698,363.223236 
	C394.370941,363.273376 394.214111,363.521149 394.022583,363.613159 
	C393.606201,363.899445 393.345459,364.005463 392.762329,363.818146 
	C390.917938,363.337585 388.851471,362.290314 387.891724,362.922729 
	C384.118805,365.408722 379.220428,367.797241 377.662384,371.463837 
	C376.636169,373.878876 376.503754,377.547455 375.133209,380.625671 
	C375.085938,380.764221 375.008545,381.046570 374.768311,381.045837 
	C374.528076,381.045135 374.058563,381.147278 373.872345,380.859802 
	C373.686127,378.636597 373.686127,376.700836 373.686127,374.057953 
	C369.582703,376.802368 365.224030,379.717499 361.768005,382.028900 
	C363.154480,385.435181 364.056183,387.650513 364.775513,390.147339 
	C344.931732,406.895081 325.825623,424.089752 305.451843,439.621521 
	C285.298553,454.985199 261.969269,463.348480 236.326859,463.893097 
	C207.706879,464.500977 182.227356,454.872833 159.580368,438.127686 
	C121.488167,409.962311 87.447273,377.341858 57.893738,340.331665 
	C38.265537,315.751038 19.919802,290.146301 0.999999,265.000000 
	C1.000000,254.645767 1.000000,244.291550 1.330917,233.622040 
	C2.939949,236.171555 3.797172,239.329590 5.558616,241.857605 
	C37.746471,288.053772 73.800468,330.962616 115.065636,369.349121 
	C133.612198,386.601837 152.533295,403.547699 175.015381,415.637695 
	C212.629211,435.865021 249.332062,435.402588 283.097870,407.569153 
	C328.499054,370.144592 371.187531,329.697693 412.636078,287.949707 
	C413.642242,286.936249 414.470123,285.745789 415.948425,283.947968 
	C404.427368,273.576355 393.299042,263.315247 381.877411,253.391769 
	C377.081512,249.224884 370.790100,250.109024 366.076233,254.513321 
	C338.696472,280.094910 311.480438,305.857635 283.777924,331.085785 
	C268.399628,345.090515 252.736740,358.904572 236.183929,371.462494 
	C220.629822,383.262756 202.603683,388.021423 183.081299,382.829224 
	C186.209930,380.312958 189.187958,378.112885 192.410095,375.732483 
	C191.288864,374.146362 190.073441,372.402924 188.833572,370.677032 
	C182.153732,361.378693 182.212646,361.472137 172.520218,367.907990 
	C169.105438,370.175446 167.626221,372.187958 171.009201,375.698639 
	C172.064636,376.793915 172.338257,378.642517 172.638275,380.124847 
	C171.869247,380.044617 171.431702,379.985809 170.751251,379.689209 
	C167.991180,378.326324 165.474030,377.201172 162.730286,375.826050 
	C153.815613,369.141632 144.798203,363.103790 136.493668,356.207458 
	C87.907883,315.860809 46.411972,268.890900 8.622865,218.497284 
	C7.495518,216.993912 6.336565,215.514252 4.929950,213.681686 
	C3.490242,219.293442 2.245122,224.146713 1.000001,229.000000 
M378.444885,187.088959 
	C378.444885,187.088959 378.185486,186.936554 377.851013,186.346222 
	C374.896729,183.902908 371.942413,181.459595 368.659210,178.436539 
	C366.899384,176.907059 365.157440,175.356461 363.377045,173.851303 
	C340.784973,154.751602 312.285339,154.931671 290.233826,174.705490 
	C250.923248,209.955688 211.737717,245.345840 172.595215,280.782745 
	C157.536469,294.415894 140.504745,294.725616 124.959236,281.688232 
	C89.229073,251.722687 56.993286,218.350235 27.374350,182.391006 
	C24.662798,179.099030 21.846613,175.893234 18.659918,172.155914 
	C17.032343,175.708038 15.925384,178.652634 14.394211,181.357040 
	C11.078198,187.213913 12.133000,191.908463 16.368677,197.213562 
	C55.269371,245.935974 98.525650,290.386749 146.096542,330.662964 
	C166.927048,348.299286 196.515518,347.946930 216.898788,329.677460 
	C256.712433,293.992554 296.650116,258.442780 336.170563,222.435486 
	C351.977325,208.033829 369.030823,209.445023 383.788666,222.034012 
	C414.500000,248.231903 442.970398,276.772034 469.824890,306.906464 
	C476.630005,314.542755 483.081726,322.493958 490.182556,330.874969 
	C491.709198,327.384186 492.689697,324.372070 494.260193,321.707733 
	C497.777344,315.740936 496.213623,311.109802 492.034363,305.936615 
	C467.506744,275.575500 441.475067,246.592133 413.435333,219.450974 
	C402.085693,208.465088 390.169128,198.064835 378.478149,187.424576 
	C378.478149,187.424576 378.469055,187.388824 378.444885,187.088959 
M403.141144,174.598511 
	C403.750580,175.091141 404.360016,175.583755 405.268372,176.667068 
	C441.130127,211.514740 473.550873,249.371796 503.695618,290.156342 
	C504.269928,287.133148 504.466888,284.952362 505.108490,282.911346 
	C508.358917,272.571625 505.218018,264.167206 498.970093,255.571426 
	C477.103912,225.488022 454.057190,196.404755 428.649078,169.239578 
	C404.948090,143.899521 379.948883,119.955101 351.947052,99.317665 
	C335.502625,87.198097 317.599915,78.286041 297.266571,75.007713 
	C268.858093,70.427429 243.901047,78.781548 222.849701,97.499184 
	C187.008942,129.366745 151.852097,162.004410 116.474960,194.391785 
	C108.255928,201.916214 100.306763,209.735428 91.402306,218.210022 
	C103.916397,229.533997 115.215508,240.067230 126.887466,250.169678 
	C131.604340,254.252258 137.522919,253.232956 142.225815,248.817352 
	C165.417282,227.042557 188.389755,205.025406 211.935989,183.640411 
	C231.284286,166.068039 250.700562,148.462997 271.230011,132.327026 
	C294.624329,113.939301 323.522949,112.873970 348.163483,129.261810 
	C362.630981,138.883804 375.471008,150.952805 388.643311,162.483307 
	C384.806885,165.477158 378.433624,168.029816 377.815613,171.583405 
	C377.136871,175.486313 381.760590,180.310455 384.068695,184.735931 
	C384.221039,185.028015 384.278259,185.568069 384.466187,185.610550 
	C385.560516,185.858002 387.015656,186.526535 387.737244,186.075119 
	C392.094055,183.349533 396.285004,180.358841 401.015656,177.125900 
	C400.288849,176.161407 399.173706,175.003708 398.453857,173.637711 
	C397.701538,172.210129 397.329590,170.582123 397.376801,169.369080 
	C399.239899,170.929703 401.102997,172.490326 402.998199,173.999847 
	C402.998199,173.999847 402.947845,174.033203 403.141144,174.598511 
M204.971237,365.437347 
	C205.728531,365.812592 206.485825,366.187866 207.243118,366.563141 
	C207.264084,365.356110 207.779602,363.809326 207.222977,362.999146 
	C204.358215,358.829407 201.218216,354.848785 197.960205,350.517487 
	C193.329071,353.722687 189.207153,356.575470 184.913559,359.547089 
	C188.289001,364.643677 191.395935,369.334839 194.502869,374.026031 
	C195.373291,367.747192 199.337082,364.055328 204.971237,365.437347 
z"/>
<path fill="#0386D0" opacity="1.000000" stroke="none" 
	d="
M273.531342,1.000000 
	C277.463928,1.802310 280.898346,2.775748 284.396637,3.378864 
	C305.439117,7.006683 323.360840,17.598553 340.913116,28.864758 
	C372.859161,49.369827 399.835754,75.563011 425.441162,103.309074 
	C453.222931,133.413361 477.690857,165.916534 498.105408,201.499664 
	C504.492523,212.632599 506.290436,224.518127 507.278839,238.089005 
	C505.722107,236.068054 504.822357,235.005737 504.036652,233.864883 
	C467.250336,180.451218 426.900452,130.134201 377.244385,87.900719 
	C362.141052,75.055023 347.127258,62.089764 329.208008,53.127373 
	C286.957336,31.995535 245.545563,34.596203 207.155869,61.124928 
	C183.554535,77.434334 162.040604,96.921623 140.489914,115.999229 
	C116.672836,137.083160 93.869118,159.312790 70.658707,181.080383 
	C64.907661,186.473938 62.266453,186.628845 56.868053,180.953934 
	C47.805843,171.427582 38.901947,161.750595 29.351820,151.515823 
	C33.691769,147.349609 37.639011,143.623001 41.518131,139.826782 
	C76.668259,105.427734 113.371040,72.770309 151.500153,41.710842 
	C178.183426,19.975000 208.249725,5.947371 242.805450,1.348107 
	C253.020889,1.000000 263.041779,1.000000 273.531342,1.000000 
z"/>
<path fill="#0386D0" opacity="1.000000" stroke="none" 
	d="
M407.934174,350.855804 
	C418.491272,340.696594 429.020172,330.507874 439.622833,320.396454 
	C442.756409,317.408051 446.437469,317.173737 449.438904,320.256989 
	C459.298096,330.385010 468.927521,340.736725 477.763306,350.070862 
	C467.476898,360.944763 458.391724,371.916809 447.923889,381.355408 
	C417.737152,408.574066 387.276550,435.506409 356.373627,461.907562 
	C333.443695,481.497223 306.959503,494.517059 277.090546,499.944946 
	C241.102188,506.484802 207.873398,499.853333 176.636398,480.383911 
	C143.362915,459.645233 114.655785,433.829163 87.984596,405.431458 
	C57.869961,373.367462 30.772755,339.021515 9.730242,300.273224 
	C5.777333,292.994232 4.302832,284.369293 1.342326,276.182739 
	C1.000000,272.638702 1.000000,269.277435 0.999999,265.458069 
	C19.919802,290.146301 38.265537,315.751038 57.893738,340.331665 
	C87.447273,377.341858 121.488167,409.962311 159.580368,438.127686 
	C182.227356,454.872833 207.706879,464.500977 236.326859,463.893097 
	C261.969269,463.348480 285.298553,454.985199 305.451843,439.621521 
	C325.825623,424.089752 344.931732,406.895081 365.017120,390.107056 
	C365.441101,389.785248 365.907990,389.636719 366.086853,389.960938 
	C367.492065,392.060150 368.718445,393.835114 369.794586,395.392609 
	C369.903137,394.965332 370.188843,393.840820 370.591949,392.254059 
	C371.664917,393.763611 372.342316,394.716644 373.608459,396.497955 
	C373.754944,394.044952 373.838104,392.652618 373.941803,390.916412 
	C375.246582,391.513153 376.329590,392.008484 378.379333,392.945953 
	C377.609436,389.315338 377.020569,386.538239 376.191498,382.628510 
	C378.552460,385.638031 380.209717,387.750549 381.866943,389.863068 
	C382.232269,389.595093 382.597565,389.327148 382.962891,389.059204 
	C381.267303,385.617889 379.571716,382.176544 378.023376,378.471649 
	C379.112549,377.475586 380.054443,376.743073 380.990997,376.380798 
	C381.892944,380.601868 383.724731,384.943909 387.873291,384.118988 
	C390.941956,383.508820 393.333588,379.493591 396.258545,376.998535 
	C396.490204,377.001678 396.953613,377.004883 397.304382,377.002838 
	C400.286072,375.481842 399.931366,374.410339 395.998810,371.996674 
	C396.000000,372.000000 396.006226,372.003632 396.001953,371.627869 
	C395.326080,369.167267 394.654480,367.082428 394.195404,364.796875 
	C394.432007,364.468567 394.499512,364.330231 394.471191,364.215515 
	C394.412445,363.977417 394.302795,363.751862 394.214111,363.521149 
	C394.214111,363.521149 394.370941,363.273376 394.778076,363.524109 
	C397.977051,367.217621 400.768921,370.660431 403.560760,374.103271 
	C403.847504,373.959747 404.134277,373.816254 404.421021,373.672760 
	C404.272308,371.492828 404.123596,369.312866 404.039825,368.085083 
	C406.221069,366.343231 407.756561,365.117035 409.952606,363.363373 
	C411.322998,364.063202 413.439880,365.144226 417.004608,366.964630 
	C415.457977,363.872040 414.593933,361.909546 413.527283,360.064117 
	C411.730591,356.955566 409.805359,353.921295 407.934174,350.855804 
z"/>
<path fill="#0286D0" opacity="1.000000" stroke="none" 
	d="
M182.930710,383.145416 
	C202.603683,388.021423 220.629822,383.262756 236.183929,371.462494 
	C252.736740,358.904572 268.399628,345.090515 283.777924,331.085785 
	C311.480438,305.857635 338.696472,280.094910 366.076233,254.513321 
	C370.790100,250.109024 377.081512,249.224884 381.877411,253.391769 
	C393.299042,263.315247 404.427368,273.576355 415.948425,283.947968 
	C414.470123,285.745789 413.642242,286.936249 412.636078,287.949707 
	C371.187531,329.697693 328.499054,370.144592 283.097870,407.569153 
	C249.332062,435.402588 212.629211,435.865021 175.015381,415.637695 
	C152.533295,403.547699 133.612198,386.601837 115.065636,369.349121 
	C73.800468,330.962616 37.746471,288.053772 5.558616,241.857605 
	C3.797172,239.329590 2.939949,236.171555 1.330917,233.153381 
	C1.000000,231.933334 1.000000,230.866653 1.000001,229.399994 
	C2.245122,224.146713 3.490242,219.293442 4.929950,213.681686 
	C6.336565,215.514252 7.495518,216.993912 8.622865,218.497284 
	C46.411972,268.890900 87.907883,315.860809 136.493668,356.207458 
	C144.798203,363.103790 153.815613,369.141632 162.521957,376.088135 
	C160.749237,377.730408 158.895584,378.774811 157.189789,380.021515 
	C156.093872,380.822479 154.501099,381.872925 154.431656,382.899506 
	C154.355316,384.027802 155.508102,385.737762 156.596451,386.333221 
	C158.370224,387.303680 159.947418,387.516541 159.380508,390.422058 
	C159.062408,392.052338 160.786270,394.081024 161.615875,395.989410 
	C161.954269,394.812378 162.287720,393.652496 162.974426,391.263916 
	C163.780502,393.833527 164.216690,395.223999 164.652878,396.614471 
	C165.005676,396.617767 165.358459,396.621063 165.711243,396.624359 
	C166.126114,394.927734 166.540985,393.231079 166.948837,391.563110 
	C167.793869,391.857361 168.640030,392.151978 170.360565,392.751068 
	C169.629669,389.610229 169.064148,387.180054 168.143417,383.223419 
	C170.698730,386.192719 172.272659,388.021637 173.846573,389.850555 
	C174.250900,389.625610 174.655243,389.400696 175.059586,389.175751 
	C173.704453,386.092834 172.349304,383.009888 170.994171,379.926971 
	C171.431702,379.985809 171.869247,380.044617 172.887238,380.383240 
	C176.622040,381.490509 179.776382,382.317963 182.930710,383.145416 
z"/>
<path fill="#90C321" opacity="1.000000" stroke="none" 
	d="
M378.510559,187.398102 
	C390.169128,198.064835 402.085693,208.465088 413.435333,219.450974 
	C441.475067,246.592133 467.506744,275.575500 492.034363,305.936615 
	C496.213623,311.109802 497.777344,315.740936 494.260193,321.707733 
	C492.689697,324.372070 491.709198,327.384186 490.182556,330.874969 
	C483.081726,322.493958 476.630005,314.542755 469.824890,306.906464 
	C442.970398,276.772034 414.500000,248.231903 383.788666,222.034012 
	C369.030823,209.445023 351.977325,208.033829 336.170563,222.435486 
	C296.650116,258.442780 256.712433,293.992554 216.898788,329.677460 
	C196.515518,347.946930 166.927048,348.299286 146.096542,330.662964 
	C98.525650,290.386749 55.269371,245.935974 16.368677,197.213562 
	C12.133000,191.908463 11.078198,187.213913 14.394211,181.357040 
	C15.925384,178.652634 17.032343,175.708038 18.659918,172.155914 
	C21.846613,175.893234 24.662798,179.099030 27.374350,182.391006 
	C56.993286,218.350235 89.229073,251.722687 124.959236,281.688232 
	C140.504745,294.725616 157.536469,294.415894 172.595215,280.782745 
	C211.737717,245.345840 250.923248,209.955688 290.233826,174.705490 
	C312.285339,154.931671 340.784973,154.751602 363.377045,173.851303 
	C365.157440,175.356461 366.899384,176.907059 368.592834,178.992294 
	C366.071960,181.007385 363.617493,182.466736 361.496796,183.727631 
	C364.910065,188.551544 367.636688,192.404999 369.954254,195.680359 
	C369.907349,195.849869 370.226685,194.695740 370.816132,192.565369 
	C371.747223,194.479172 372.248993,195.510544 373.431824,197.941727 
	C375.470154,193.710068 376.990356,190.554092 378.510559,187.398102 
z"/>
<path fill="#0386D0" opacity="1.000000" stroke="none" 
	d="
M389.043091,161.921112 
	C375.471008,150.952805 362.630981,138.883804 348.163483,129.261810 
	C323.522949,112.873970 294.624329,113.939301 271.230011,132.327026 
	C250.700562,148.462997 231.284286,166.068039 211.935989,183.640411 
	C188.389755,205.025406 165.417282,227.042557 142.225815,248.817352 
	C137.522919,253.232956 131.604340,254.252258 126.887466,250.169678 
	C115.215508,240.067230 103.916397,229.533997 91.402306,218.210022 
	C100.306763,209.735428 108.255928,201.916214 116.474960,194.391785 
	C151.852097,162.004410 187.008942,129.366745 222.849701,97.499184 
	C243.901047,78.781548 268.858093,70.427429 297.266571,75.007713 
	C317.599915,78.286041 335.502625,87.198097 351.947052,99.317665 
	C379.948883,119.955101 404.948090,143.899521 428.649078,169.239578 
	C454.057190,196.404755 477.103912,225.488022 498.970093,255.571426 
	C505.218018,264.167206 508.358917,272.571625 505.108490,282.911346 
	C504.466888,284.952362 504.269928,287.133148 503.695618,290.156342 
	C473.550873,249.371796 441.130127,211.514740 405.088440,176.040298 
	C404.254974,174.953430 403.601410,174.493317 402.947845,174.033203 
	C402.947845,174.033203 402.998199,173.999847 403.006470,173.637161 
	C403.477173,171.366928 403.939636,169.459381 404.457062,167.325012 
	C405.663666,167.658142 406.662689,167.933960 407.651459,168.206955 
	C408.010620,166.739426 408.304626,165.537994 408.584320,164.395172 
	C410.398315,164.553497 411.828857,164.678360 413.324402,164.808884 
	C413.522491,166.233368 413.689728,167.436096 413.856995,168.638824 
	C414.337982,168.616058 414.819000,168.593307 415.299988,168.570541 
	C415.299988,167.022034 415.798615,165.236710 415.198547,163.973206 
	C413.855682,161.145630 412.042969,158.525635 410.279510,155.917160 
	C407.928619,152.439728 404.999878,152.225632 401.815582,154.794525 
	C399.255066,156.860168 395.974152,158.582245 394.532410,161.271423 
	C393.717438,162.791565 395.969666,165.956131 396.538818,168.220642 
	C393.839203,166.014542 391.441162,163.967834 389.043091,161.921112 
M177.000000,183.000000 
	C177.000000,183.000000 176.997818,183.003052 177.206741,183.448380 
	C177.406158,183.726456 177.670563,183.911835 178.000000,184.000000 
	C178.000000,184.000000 177.994812,184.001740 177.999466,184.687393 
	C178.368057,185.284973 178.736664,185.882538 179.105255,186.480118 
	C179.405716,185.652084 179.706192,184.824051 180.000000,184.000000 
	C180.000000,184.000000 179.994766,184.005890 180.734543,183.995377 
	C183.492233,181.996002 186.249908,179.996643 189.000000,177.999512 
	C189.000000,177.999512 188.997696,178.006927 189.670837,178.011276 
	C190.528351,177.908035 191.385849,177.804794 193.199493,177.586441 
	C191.334625,175.991302 190.168488,174.993820 189.000000,174.000000 
	C189.000000,174.000000 189.004288,173.997849 188.934448,173.317947 
	C187.622971,171.543228 186.311493,169.768509 185.000000,168.000000 
	C185.000000,168.000000 185.006195,168.000198 184.932434,167.322647 
	C182.919449,163.834305 182.586914,163.722961 180.556000,166.229050 
	C180.289383,166.432022 180.103195,166.692505 179.366669,166.950897 
	C175.082108,166.735489 173.453796,169.757599 171.429459,172.752228 
	C170.747437,172.981445 170.065414,173.210648 169.383392,173.439850 
	C170.921829,174.961380 172.460266,176.482910 174.000000,178.000000 
	C174.000000,178.000000 173.995544,178.001053 173.989990,178.698883 
	C174.659439,179.800842 175.328903,180.902802 176.000000,182.000000 
	C176.000000,182.000000 175.995392,182.000076 176.209198,182.442169 
	C176.405640,182.721878 176.668228,182.908539 177.000000,183.000000 
M167.730438,193.897980 
	C172.797394,191.679626 167.866852,188.245087 168.652390,184.913528 
	C170.675522,186.753937 172.355865,188.282516 174.036209,189.811111 
	C174.292175,189.543076 174.548141,189.275040 174.804108,189.007004 
	C172.878342,185.870270 170.952576,182.733536 168.915726,179.415848 
	C167.639771,179.782791 166.138000,180.214661 164.292709,180.745316 
	C164.183105,179.254013 164.100906,178.135864 164.574814,176.935349 
	C164.890060,176.631973 165.205307,176.328598 165.520554,176.025208 
	C165.315750,175.846878 165.110947,175.668549 164.906143,175.490219 
	C164.598389,175.987473 164.290649,176.484741 163.279266,177.066742 
	C161.389023,178.347122 159.494232,179.620880 157.610107,180.910217 
	C156.344391,181.776352 155.093796,182.664551 153.836426,183.542892 
	C154.857513,184.929153 155.618561,187.067322 156.958786,187.530853 
	C159.135727,188.283752 159.471069,189.110580 159.489700,191.286530 
	C159.505783,193.163193 160.845078,195.028488 161.600494,196.911514 
	C161.948135,195.772354 162.295792,194.633179 162.878235,192.724670 
	C163.776093,194.588043 164.290390,195.655396 165.204056,197.551559 
	C166.060867,195.855103 166.528687,194.928848 167.000000,194.000000 
	C167.000000,194.000000 167.003662,193.996338 167.730438,193.897980 
M205.459518,165.188339 
	C205.551971,166.329987 205.644440,167.471634 205.773544,169.065826 
	C208.265259,165.916016 205.531204,158.886581 201.114838,154.538559 
	C198.400070,151.865799 195.766937,152.063034 185.815247,161.741867 
	C189.010910,166.452713 192.246277,171.222092 195.481659,175.991470 
	C195.838928,175.811066 196.196213,175.630646 196.553482,175.450226 
	C196.400528,172.836823 196.247589,170.223404 196.067917,167.153366 
	C197.718460,167.661743 198.622452,167.940170 199.658981,168.259430 
	C199.916351,166.981979 200.168365,165.731125 200.423676,164.463943 
	C202.105209,164.567474 203.556580,164.656830 205.459518,165.188339 
z"/>
<path fill="#EFEFEF" opacity="1.000000" stroke="none" 
	d="
M388.843201,162.202209 
	C391.441162,163.967834 393.839203,166.014542 396.520386,168.385559 
	C396.803528,168.709869 396.791382,169.041718 396.791382,169.041718 
	C397.329590,170.582123 397.701538,172.210129 398.453857,173.637711 
	C399.173706,175.003708 400.288849,176.161407 401.015656,177.125900 
	C396.285004,180.358841 392.094055,183.349533 387.737244,186.075119 
	C387.015656,186.526535 385.560516,185.858002 384.466187,185.610550 
	C384.278259,185.568069 384.221039,185.028015 384.068695,184.735931 
	C381.760590,180.310455 377.136871,175.486313 377.815613,171.583405 
	C378.433624,168.029816 384.806885,165.477158 388.843201,162.202209 
z"/>
<path fill="#EFEFEF" opacity="1.000000" stroke="none" 
	d="
M183.081299,382.829224 
	C179.776382,382.317963 176.622040,381.490509 173.218750,380.404663 
	C172.338257,378.642517 172.064636,376.793915 171.009201,375.698639 
	C167.626221,372.187958 169.105438,370.175446 172.520218,367.907990 
	C182.212646,361.472137 182.153732,361.378693 188.833572,370.677032 
	C190.073441,372.402924 191.288864,374.146362 192.410095,375.732483 
	C189.187958,378.112885 186.209930,380.312958 183.081299,382.829224 
z"/>
<path fill="#EFEFEF" opacity="1.000000" stroke="none" 
	d="
M204.807861,365.107269 
	C199.337082,364.055328 195.373291,367.747192 194.502869,374.026031 
	C191.395935,369.334839 188.289001,364.643677 184.913559,359.547089 
	C189.207153,356.575470 193.329071,353.722687 197.960205,350.517487 
	C201.218216,354.848785 204.358215,358.829407 207.222977,362.999146 
	C207.779602,363.809326 207.264084,365.356110 207.243118,366.563141 
	C206.485825,366.187866 205.728531,365.812592 204.807861,365.107269 
z"/>
<path fill="#198CCD" opacity="1.000000" stroke="none" 
	d="
M397.084106,169.205399 
	C396.791382,169.041718 396.803528,168.709869 396.821960,168.544937 
	C395.969666,165.956131 393.717438,162.791565 394.532410,161.271423 
	C395.974152,158.582245 399.255066,156.860168 401.815582,154.794525 
	C404.999878,152.225632 407.928619,152.439728 410.279510,155.917160 
	C412.042969,158.525635 413.855682,161.145630 415.198547,163.973206 
	C415.798615,165.236710 415.299988,167.022034 415.299988,168.570541 
	C414.819000,168.593307 414.337982,168.616058 413.856995,168.638824 
	C413.689728,167.436096 413.522491,166.233368 413.324402,164.808884 
	C411.828857,164.678360 410.398315,164.553497 408.584320,164.395172 
	C408.304626,165.537994 408.010620,166.739426 407.651459,168.206955 
	C406.662689,167.933960 405.663666,167.658142 404.457062,167.325012 
	C403.939636,169.459381 403.477173,171.366928 402.990417,173.662720 
	C401.102997,172.490326 399.239899,170.929703 397.084106,169.205399 
z"/>
<path fill="#188BCD" opacity="1.000000" stroke="none" 
	d="
M170.751251,379.689209 
	C172.349304,383.009888 173.704453,386.092834 175.059586,389.175751 
	C174.655243,389.400696 174.250900,389.625610 173.846573,389.850555 
	C172.272659,388.021637 170.698730,386.192719 168.143417,383.223419 
	C169.064148,387.180054 169.629669,389.610229 170.360565,392.751068 
	C168.640030,392.151978 167.793869,391.857361 166.948837,391.563110 
	C166.540985,393.231079 166.126114,394.927734 165.711243,396.624359 
	C165.358459,396.621063 165.005676,396.617767 164.652878,396.614471 
	C164.216690,395.223999 163.780502,393.833527 162.974426,391.263916 
	C162.287720,393.652496 161.954269,394.812378 161.615875,395.989410 
	C160.786270,394.081024 159.062408,392.052338 159.380508,390.422058 
	C159.947418,387.516541 158.370224,387.303680 156.596451,386.333221 
	C155.508102,385.737762 154.355316,384.027802 154.431656,382.899506 
	C154.501099,381.872925 156.093872,380.822479 157.189789,380.021515 
	C158.895584,378.774811 160.749237,377.730408 162.748535,376.338135 
	C165.474030,377.201172 167.991180,378.326324 170.751251,379.689209 
z"/>
<path fill="#1C8DCE" opacity="1.000000" stroke="none" 
	d="
M407.622559,350.987366 
	C409.805359,353.921295 411.730591,356.955566 413.527283,360.064117 
	C414.593933,361.909546 415.457977,363.872040 417.004608,366.964630 
	C413.439880,365.144226 411.322998,364.063202 409.952606,363.363373 
	C407.756561,365.117035 406.221069,366.343231 404.039825,368.085083 
	C404.123596,369.312866 404.272308,371.492828 404.421021,373.672760 
	C404.134277,373.816254 403.847504,373.959747 403.560760,374.103271 
	C400.768921,370.660431 397.977051,367.217621 394.915833,363.473938 
	C398.867950,359.155029 403.089447,355.136963 407.622559,350.987366 
z"/>
<path fill="#96C333" opacity="1.000000" stroke="none" 
	d="
M378.494354,187.411346 
	C376.990356,190.554092 375.470154,193.710068 373.431824,197.941727 
	C372.248993,195.510544 371.747223,194.479172 370.816132,192.565369 
	C370.226685,194.695740 369.907349,195.849869 369.954254,195.680359 
	C367.636688,192.404999 364.910065,188.551544 361.496796,183.727631 
	C363.617493,182.466736 366.071960,181.007385 368.757263,179.282166 
	C371.942413,181.459595 374.896729,183.902908 377.830933,186.752121 
	C378.030243,187.234955 378.249664,187.311890 378.469055,187.388824 
	C378.469055,187.388824 378.478149,187.424576 378.494354,187.411346 
z"/>
<path fill="#1E8DCE" opacity="1.000000" stroke="none" 
	d="
M377.876160,378.735229 
	C379.571716,382.176544 381.267303,385.617889 382.962891,389.059204 
	C382.597565,389.327148 382.232269,389.595093 381.866943,389.863068 
	C380.209717,387.750549 378.552460,385.638031 376.191498,382.628510 
	C377.020569,386.538239 377.609436,389.315338 378.379333,392.945953 
	C376.329590,392.008484 375.246582,391.513153 373.941803,390.916412 
	C373.838104,392.652618 373.754944,394.044952 373.608459,396.497955 
	C372.342316,394.716644 371.664917,393.763611 370.591949,392.254059 
	C370.188843,393.840820 369.903137,394.965332 369.794586,395.392609 
	C368.718445,393.835114 367.492065,392.060150 366.232849,389.677429 
	C368.819275,386.706940 371.438507,384.344238 374.261475,381.876740 
	C374.718231,381.584015 374.899353,381.342224 375.008545,381.046570 
	C375.008545,381.046570 375.085938,380.764221 375.427979,380.489532 
	C376.472076,379.721649 377.174103,379.228455 377.876160,378.735229 
z"/>
<path fill="#ECEDEE" opacity="1.000000" stroke="none" 
	d="
M378.023407,378.471680 
	C377.174103,379.228455 376.472076,379.721649 375.475281,380.350983 
	C376.503754,377.547455 376.636169,373.878876 377.662384,371.463837 
	C379.220428,367.797241 384.118805,365.408722 387.891724,362.922729 
	C388.851471,362.290314 390.917938,363.337585 392.697418,364.044678 
	C392.918945,364.476257 392.778809,364.926300 392.519775,365.047058 
	C391.768188,365.738068 391.275604,366.308380 390.525421,366.977234 
	C389.789093,367.621735 389.310394,368.167633 388.530945,368.866821 
	C385.818909,371.350281 383.407623,373.680450 380.996338,376.010590 
	C380.054443,376.743073 379.112549,377.475586 378.023407,378.471680 
z"/>
<path fill="#EEEEEF" opacity="1.000000" stroke="none" 
	d="
M374.057770,381.981567 
	C371.438507,384.344238 368.819275,386.706940 366.054016,389.353180 
	C365.907990,389.636719 365.441101,389.785248 365.199493,389.825531 
	C364.056183,387.650513 363.154480,385.435181 361.768005,382.028900 
	C365.224030,379.717499 369.582703,376.802368 373.686127,374.057953 
	C373.686127,376.700836 373.686127,378.636597 373.864136,381.068420 
	C374.042175,381.564453 374.057770,381.981567 374.057770,381.981567 
z"/>
<path fill="#198CCD" opacity="1.000000" stroke="none" 
	d="
M403.044495,174.315857 
	C403.601410,174.493317 404.254974,174.953430 404.938995,175.744949 
	C404.360016,175.583755 403.750580,175.091141 403.044495,174.315857 
z"/>
<path fill="#1C8DCE" opacity="1.000000" stroke="none" 
	d="
M392.778809,364.926300 
	C392.778809,364.926300 392.918945,364.476257 392.983887,364.249756 
	C393.345459,364.005463 393.606201,363.899445 394.022583,363.613159 
	C394.302795,363.751862 394.412445,363.977417 394.471191,364.215515 
	C394.499512,364.330231 394.432007,364.468567 393.894287,364.782837 
	C393.180023,364.955017 392.979401,364.940643 392.778809,364.926300 
z"/>
<path fill="#0386D0" opacity="1.000000" stroke="none" 
	d="
M374.261475,381.876740 
	C374.057770,381.981567 374.042175,381.564453 374.050354,381.355865 
	C374.058563,381.147278 374.528076,381.045135 374.768311,381.045837 
	C374.899353,381.342224 374.718231,381.584015 374.261475,381.876740 
z"/>
<path fill="#90C321" opacity="1.000000" stroke="none" 
	d="
M378.456970,187.238892 
	C378.249664,187.311890 378.030243,187.234955 377.998169,187.047287 
	C378.185486,186.936554 378.444885,187.088959 378.456970,187.238892 
z"/>
<path fill="#1F8DCC" opacity="1.000000" stroke="none" 
	d="
M380.990997,376.380798 
	C383.407623,373.680450 385.818909,371.350281 388.699036,369.197266 
	C390.447052,369.918060 391.726166,370.461700 393.002777,371.002808 
	C393.000275,371.000275 392.994720,370.994659 392.934937,371.352753 
	C392.374084,373.164795 391.873016,374.618774 391.371979,376.072754 
	C392.923615,376.380280 394.475220,376.687836 396.026855,376.995361 
	C393.333588,379.493591 390.941956,383.508820 387.873291,384.118988 
	C383.724731,384.943909 381.892944,380.601868 380.990997,376.380798 
z"/>
<path fill="#0586CE" opacity="1.000000" stroke="none" 
	d="
M396.258545,376.998535 
	C394.475220,376.687836 392.923615,376.380280 391.371979,376.072754 
	C391.873016,374.618774 392.374084,373.164795 393.255066,371.379486 
	C394.425415,371.366638 395.215820,371.685120 396.006226,372.003632 
	C396.006226,372.003632 396.000000,372.000000 396.038635,372.362610 
	C396.369385,374.151764 396.661499,375.578339 396.953613,377.004883 
	C396.953613,377.004883 396.490204,377.001678 396.258545,376.998535 
z"/>
<path fill="#1F8DCC" opacity="1.000000" stroke="none" 
	d="
M396.001953,371.627869 
	C395.215820,371.685120 394.425415,371.366638 393.314880,371.021393 
	C392.994720,370.994659 393.000275,371.000275 393.001160,370.638245 
	C392.262390,369.143707 391.522705,368.011200 390.783020,366.878662 
	C391.275604,366.308380 391.768188,365.738068 392.519775,365.047058 
	C392.979401,364.940643 393.180023,364.955017 393.681763,364.983490 
	C394.654480,367.082428 395.326080,369.167267 396.001953,371.627869 
z"/>
<path fill="#1F8DCC" opacity="1.000000" stroke="none" 
	d="
M397.304382,377.002838 
	C396.661499,375.578339 396.369385,374.151764 396.037415,372.359283 
	C399.931366,374.410339 400.286072,375.481842 397.304382,377.002838 
z"/>
<path fill="#198CCD" opacity="1.000000" stroke="none" 
	d="
M205.233734,164.967255 
	C203.556580,164.656830 202.105209,164.567474 200.423676,164.463943 
	C200.168365,165.731125 199.916351,166.981979 199.658981,168.259430 
	C198.622452,167.940170 197.718460,167.661743 196.067917,167.153366 
	C196.247589,170.223404 196.400528,172.836823 196.553482,175.450226 
	C196.196213,175.630646 195.838928,175.811066 195.481659,175.991470 
	C192.246277,171.222092 189.010910,166.452713 185.815247,161.741867 
	C195.766937,152.063034 198.400070,151.865799 201.114838,154.538559 
	C205.531204,158.886581 208.265259,165.916016 205.773544,169.065826 
	C205.644440,167.471634 205.551971,166.329987 205.233734,164.967255 
z"/>
<path fill="#178BCE" opacity="1.000000" stroke="none" 
	d="
M164.018723,177.017700 
	C164.100906,178.135864 164.183105,179.254013 164.292709,180.745316 
	C166.138000,180.214661 167.639771,179.782791 168.915726,179.415848 
	C170.952576,182.733536 172.878342,185.870270 174.804108,189.007004 
	C174.548141,189.275040 174.292175,189.543076 174.036209,189.811111 
	C172.355865,188.282516 170.675522,186.753937 168.652390,184.913528 
	C167.866852,188.245087 172.797394,191.679626 167.342072,193.681061 
	C166.719406,193.111420 166.485107,192.758728 166.250809,192.406036 
	C166.074295,192.548019 165.897781,192.690002 165.721268,192.831985 
	C166.146347,193.222198 166.571426,193.612396 166.996506,194.002594 
	C166.528687,194.928848 166.060867,195.855103 165.204056,197.551559 
	C164.290390,195.655396 163.776093,194.588043 162.878235,192.724670 
	C162.295792,194.633179 161.948135,195.772354 161.599930,196.905167 
	C160.845078,195.028488 159.505783,193.163193 159.489700,191.286530 
	C159.471069,189.110580 159.135727,188.283752 156.958786,187.530853 
	C155.618561,187.067322 154.857513,184.929153 153.836426,183.542892 
	C155.093796,182.664551 156.344391,181.776352 157.610107,180.910217 
	C159.494232,179.620880 161.389023,178.347122 163.639801,177.033493 
	C164.000320,177.000244 164.018723,177.017700 164.018723,177.017700 
z"/>
<path fill="#0687CF" opacity="1.000000" stroke="none" 
	d="
M179.997467,167.010498 
	C180.103195,166.692505 180.289383,166.432022 181.067520,166.255585 
	C182.721420,166.854813 183.863800,167.427505 185.006195,168.000214 
	C185.006195,168.000198 185.000000,168.000000 185.000244,168.363022 
	C186.335083,170.483307 187.669678,172.240585 189.004288,173.997849 
	C189.004288,173.997849 189.000000,174.000000 188.996674,174.399170 
	C188.994781,175.867874 188.996246,176.937408 188.997696,178.006927 
	C188.997696,178.006927 189.000000,177.999512 188.578583,177.998779 
	C185.889084,178.631409 183.439545,178.936295 181.433701,180.044373 
	C180.507294,180.556152 180.447479,182.636658 179.994766,184.005890 
	C179.994766,184.005890 180.000000,184.000000 179.667953,183.999359 
	C178.888870,183.999725 178.441849,184.000732 177.994812,184.001740 
	C177.994812,184.001740 178.000000,184.000000 177.893585,183.781036 
	C177.587860,183.285645 177.324753,183.099304 176.997818,183.003052 
	C176.997818,183.003052 177.000000,183.000000 176.892685,182.779388 
	C176.587143,182.280487 176.323822,182.094254 175.995392,182.000076 
	C175.995392,182.000076 176.000000,182.000000 176.003387,181.653198 
	C175.336380,180.204620 174.665970,179.102829 173.995544,178.001053 
	C173.995544,178.001053 174.000000,178.000000 173.897125,177.741272 
	C173.531723,176.988770 173.269165,176.495010 173.171234,175.787201 
	C174.732498,175.316696 176.129135,175.060242 177.796021,174.754181 
	C177.708755,175.951508 177.620361,177.164413 177.454819,179.435867 
	C180.458206,177.073837 182.729797,175.287338 185.001389,173.500839 
	C184.381531,173.457565 183.761658,173.414307 183.141800,173.371048 
	C182.093689,171.250870 181.045578,169.130676 179.997467,167.010498 
z"/>
<path fill="#1D8DCE" opacity="1.000000" stroke="none" 
	d="
M179.682068,166.980698 
	C181.045578,169.130676 182.093689,171.250870 183.141800,173.371048 
	C183.761658,173.414307 184.381531,173.457565 185.001389,173.500839 
	C182.729797,175.287338 180.458206,177.073837 177.454819,179.435867 
	C177.620361,177.164413 177.708755,175.951508 177.796021,174.754181 
	C176.129135,175.060242 174.732498,175.316696 172.912659,175.576569 
	C172.326721,174.717972 172.163971,173.855942 172.001221,172.993912 
	C173.453796,169.757599 175.082108,166.735489 179.682068,166.980698 
z"/>
<path fill="#1E8CCE" opacity="1.000000" stroke="none" 
	d="
M180.364655,184.000641 
	C180.447479,182.636658 180.507294,180.556152 181.433701,180.044373 
	C183.439545,178.936295 185.889084,178.631409 188.582382,177.997650 
	C186.249908,179.996643 183.492233,181.996002 180.364655,184.000641 
z"/>
<path fill="#1F8FCD" opacity="1.000000" stroke="none" 
	d="
M171.715332,172.873077 
	C172.163971,173.855942 172.326721,174.717972 172.748047,175.790619 
	C173.269165,176.495010 173.531723,176.988770 173.896484,177.743484 
	C172.460266,176.482910 170.921829,174.961380 169.383392,173.439850 
	C170.065414,173.210648 170.747437,172.981445 171.715332,172.873077 
z"/>
<path fill="#1D8BCC" opacity="1.000000" stroke="none" 
	d="
M184.969315,167.661438 
	C183.863800,167.427505 182.721420,166.854813 181.282166,166.141541 
	C182.586914,163.722961 182.919449,163.834305 184.969315,167.661438 
z"/>
<path fill="#1D8BCC" opacity="1.000000" stroke="none" 
	d="
M188.969360,173.657898 
	C187.669678,172.240585 186.335083,170.483307 185.000244,168.359924 
	C186.311493,169.768509 187.622971,171.543228 188.969360,173.657898 
z"/>
<path fill="#1D8BCC" opacity="1.000000" stroke="none" 
	d="
M189.334259,178.009094 
	C188.996246,176.937408 188.994781,175.867874 188.997833,174.397354 
	C190.168488,174.993820 191.334625,175.991302 193.199493,177.586441 
	C191.385849,177.804794 190.528351,177.908035 189.334259,178.009094 
z"/>
<path fill="#1F8FCD" opacity="1.000000" stroke="none" 
	d="
M173.992767,178.349976 
	C174.665970,179.102829 175.336380,180.204620 176.002563,181.655579 
	C175.328903,180.902802 174.659439,179.800842 173.992767,178.349976 
z"/>
<path fill="#1F8FCD" opacity="1.000000" stroke="none" 
	d="
M177.997131,184.344574 
	C178.441849,184.000732 178.888870,183.999725 179.671280,183.997375 
	C179.706192,184.824051 179.405716,185.652084 179.105255,186.480118 
	C178.736664,185.882538 178.368057,185.284973 177.997131,184.344574 
z"/>
<path fill="#178BCE" opacity="1.000000" stroke="none" 
	d="
M163.991608,176.991119 
	C164.290649,176.484741 164.598389,175.987473 164.906143,175.490219 
	C165.110947,175.668549 165.315750,175.846878 165.520554,176.025208 
	C165.205307,176.328598 164.890060,176.631973 164.296768,176.976532 
	C164.018723,177.017700 164.000320,177.000244 163.991608,176.991119 
z"/>
<path fill="#1F8FCD" opacity="1.000000" stroke="none" 
	d="
M177.102280,183.225708 
	C177.324753,183.099304 177.587860,183.285645 177.893570,183.783295 
	C177.670563,183.911835 177.406158,183.726456 177.102280,183.225708 
z"/>
<path fill="#1F8FCD" opacity="1.000000" stroke="none" 
	d="
M176.102295,182.221130 
	C176.323822,182.094254 176.587143,182.280487 176.891174,182.780472 
	C176.668228,182.908539 176.405640,182.721878 176.102295,182.221130 
z"/>
<path fill="#0586CE" opacity="1.000000" stroke="none" 
	d="
M390.525421,366.977234 
	C391.522705,368.011200 392.262390,369.143707 393.003662,370.640808 
	C391.726166,370.461700 390.447052,369.918060 388.999817,369.044006 
	C389.310394,368.167633 389.789093,367.621735 390.525421,366.977234 
z"/>
<path fill="#0386D0" opacity="1.000000" stroke="none" 
	d="
M166.998260,194.001297 
	C166.571426,193.612396 166.146347,193.222198 165.721268,192.831985 
	C165.897781,192.690002 166.074295,192.548019 166.250809,192.406036 
	C166.485107,192.758728 166.719406,193.111420 166.978683,193.730225 
	C167.003662,193.996338 167.000000,194.000000 166.998260,194.001297 
z"/>
</svg>